HIERARCHY
ROOT mixamorig:Hips
{
	OFFSET -0.000008 104.274872 1.554316
	CHANNELS 6 Xposition Yposition Zposition Xrotation Yrotation Zrotation
	JOINT mixamorig:Spine
	{
		OFFSET -0.000005 10.181595 0.131519
		CHANNELS 6 Xposition Yposition Zposition Xrotation Yrotation Zrotation
		JOINT mixamorig:Spine1
		{
			OFFSET -0.000000 9.893959 -1.470707
			CHANNELS 6 Xposition Yposition Zposition Xrotation Yrotation Zrotation
			JOINT mixamorig:Spine2
			{
				OFFSET -0.000000 9.220757 -1.370641
				CHANNELS 6 Xposition Yposition Zposition Xrotation Yrotation Zrotation
				JOINT mixamorig:Neck
				{
					OFFSET 0.000001 16.740417 -2.049036
					CHANNELS 6 Xposition Yposition Zposition Xrotation Yrotation Zrotation
					JOINT mixamorig:Head
					{
						OFFSET 0.000000 9.617874 1.685006
						CHANNELS 6 Xposition Yposition Zposition Xrotation Yrotation Zrotation
						JOINT mixamorig:HeadTop_End
						{
							OFFSET 0.000002 22.037354 7.501101
							CHANNELS 6 Xposition Yposition Zposition Xrotation Yrotation Zrotation
							End Site
							{
								OFFSET 0.000168 2310.654297 -282.823242
							}
						}
					}
				}
				JOINT mixamorig:RightShoulder
				{
					OFFSET -4.569970 11.014908 -2.160885
					CHANNELS 6 Xposition Yposition Zposition Xrotation Yrotation Zrotation
					JOINT mixamorig:RightArm
					{
						OFFSET -10.592851 -0.524811 -2.232101
						CHANNELS 6 Xposition Yposition Zposition Xrotation Yrotation Zrotation
						JOINT mixamorig:RightForeArm
						{
							OFFSET -27.841511 0.000031 -0.000004
							CHANNELS 6 Xposition Yposition Zposition Xrotation Yrotation Zrotation
							JOINT mixamorig:RightHand
							{
								OFFSET -28.328831 -0.000015 0.000015
								CHANNELS 6 Xposition Yposition Zposition Xrotation Yrotation Zrotation
								JOINT mixamorig:RightHandThumb1
								{
									OFFSET -2.464806 -1.573990 2.681852
									CHANNELS 6 Xposition Yposition Zposition Xrotation Yrotation Zrotation
									JOINT mixamorig:RightHandThumb2
									{
										OFFSET -3.215179 -1.872803 1.924282
										CHANNELS 6 Xposition Yposition Zposition Xrotation Yrotation Zrotation
										JOINT mixamorig:RightHandThumb3
										{
											OFFSET -2.654831 -1.527969 1.512609
											CHANNELS 6 Xposition Yposition Zposition Xrotation Yrotation Zrotation
											JOINT mixamorig:RightHandThumb4
											{
												OFFSET -2.018814 -1.152008 1.108052
												CHANNELS 6 Xposition Yposition Zposition Xrotation Yrotation Zrotation
												End Site
												{
													OFFSET -188.809540 -114.533607 132.431396
												}
											}
										}
									}
								}
								JOINT mixamorig:RightHandIndex1
								{
									OFFSET -9.108284 -0.517868 2.259835
									CHANNELS 6 Xposition Yposition Zposition Xrotation Yrotation Zrotation
									JOINT mixamorig:RightHandIndex2
									{
										OFFSET -3.699989 0.000000 0.001215
										CHANNELS 6 Xposition Yposition Zposition Xrotation Yrotation Zrotation
										JOINT mixamorig:RightHandIndex3
										{
											OFFSET -2.850006 0.000031 -0.000522
											CHANNELS 6 Xposition Yposition Zposition Xrotation Yrotation Zrotation
											JOINT mixamorig:RightHandIndex4
											{
												OFFSET -2.772186 -0.000015 -0.000020
												CHANNELS 6 Xposition Yposition Zposition Xrotation Yrotation Zrotation
												End Site
												{
													OFFSET -277.218445 0.000000 -0.050231
												}
											}
										}
									}
								}
								JOINT mixamorig:RightHandMiddle1
								{
									OFFSET -9.532516 -0.000031 -0.000023
									CHANNELS 6 Xposition Yposition Zposition Xrotation Yrotation Zrotation
									JOINT mixamorig:RightHandMiddle2
									{
										OFFSET -3.700005 -0.000015 0.003713
										CHANNELS 6 Xposition Yposition Zposition Xrotation Yrotation Zrotation
										JOINT mixamorig:RightHandMiddle3
										{
											OFFSET -2.949974 0.000015 -0.002054
											CHANNELS 6 Xposition Yposition Zposition Xrotation Yrotation Zrotation
											JOINT mixamorig:RightHandMiddle4
											{
												OFFSET -2.946640 0.000000 -0.000156
												CHANNELS 6 Xposition Yposition Zposition Xrotation Yrotation Zrotation
												End Site
												{
													OFFSET -294.664337 0.000000 -0.113670
												}
											}
										}
									}
								}
								JOINT mixamorig:RightHandRing1
								{
									OFFSET -9.103600 -0.043076 -1.865134
									CHANNELS 6 Xposition Yposition Zposition Xrotation Yrotation Zrotation
									JOINT mixamorig:RightHandRing2
									{
										OFFSET -3.379288 0.000000 -0.001055
										CHANNELS 6 Xposition Yposition Zposition Xrotation Yrotation Zrotation
										JOINT mixamorig:RightHandRing3
										{
											OFFSET -2.889687 -0.000015 0.000379
											CHANNELS 6 Xposition Yposition Zposition Xrotation Yrotation Zrotation
											JOINT mixamorig:RightHandRing4
											{
												OFFSET -2.638809 -0.000015 0.000941
												CHANNELS 6 Xposition Yposition Zposition Xrotation Yrotation Zrotation
												End Site
												{
													OFFSET -263.880371 0.000000 0.516020
												}
											}
										}
									}
								}
								JOINT mixamorig:RightHandPinky1
								{
									OFFSET -8.076683 -0.486710 -3.806280
									CHANNELS 6 Xposition Yposition Zposition Xrotation Yrotation Zrotation
									JOINT mixamorig:RightHandPinky2
									{
										OFFSET -3.600014 -0.000015 -0.003747
										CHANNELS 6 Xposition Yposition Zposition Xrotation Yrotation Zrotation
										JOINT mixamorig:RightHandPinky3
										{
											OFFSET -2.099983 0.000000 -0.005739
											CHANNELS 6 Xposition Yposition Zposition Xrotation Yrotation Zrotation
											JOINT mixamorig:RightHandPinky4
											{
												OFFSET -2.115768 -0.000031 -0.003680
												CHANNELS 6 Xposition Yposition Zposition Xrotation Yrotation Zrotation
												End Site
												{
													OFFSET -211.577087 0.000000 -0.350686
												}
											}
										}
									}
								}
							}
						}
					}
				}
				JOINT mixamorig:LeftShoulder
				{
					OFFSET 4.570447 11.014725 -2.160855
					CHANNELS 6 Xposition Yposition Zposition Xrotation Yrotation Zrotation
					JOINT mixamorig:LeftArm
					{
						OFFSET 10.592371 -0.524597 -2.232119
						CHANNELS 6 Xposition Yposition Zposition Xrotation Yrotation Zrotation
						JOINT mixamorig:LeftForeArm
						{
							OFFSET 27.841532 -0.000031 0.000026
							CHANNELS 6 Xposition Yposition Zposition Xrotation Yrotation Zrotation
							JOINT mixamorig:LeftHand
							{
								OFFSET 28.328846 -0.000061 0.000022
								CHANNELS 6 Xposition Yposition Zposition Xrotation Yrotation Zrotation
								JOINT mixamorig:LeftHandThumb1
								{
									OFFSET 2.466141 -1.576172 2.681732
									CHANNELS 6 Xposition Yposition Zposition Xrotation Yrotation Zrotation
									JOINT mixamorig:LeftHandThumb2
									{
										OFFSET 3.217812 -1.872070 1.916482
										CHANNELS 6 Xposition Yposition Zposition Xrotation Yrotation Zrotation
										JOINT mixamorig:LeftHandThumb3
										{
											OFFSET 2.656029 -1.528778 1.514513
											CHANNELS 6 Xposition Yposition Zposition Xrotation Yrotation Zrotation
											JOINT mixamorig:LeftHandThumb4
											{
												OFFSET 2.020889 -1.154053 1.115139
												CHANNELS 6 Xposition Yposition Zposition Xrotation Yrotation Zrotation
												End Site
												{
													OFFSET 190.885437 -115.081749 130.048782
												}
											}
										}
									}
								}
								JOINT mixamorig:LeftHandIndex1
								{
									OFFSET 9.109314 -0.518021 2.259871
									CHANNELS 6 Xposition Yposition Zposition Xrotation Yrotation Zrotation
									JOINT mixamorig:LeftHandIndex2
									{
										OFFSET 3.699989 0.000000 -0.000322
										CHANNELS 6 Xposition Yposition Zposition Xrotation Yrotation Zrotation
										JOINT mixamorig:LeftHandIndex3
										{
											OFFSET 2.850006 0.000000 0.000352
											CHANNELS 6 Xposition Yposition Zposition Xrotation Yrotation Zrotation
											JOINT mixamorig:LeftHandIndex4
											{
												OFFSET 2.774864 -0.000031 -0.000027
												CHANNELS 6 Xposition Yposition Zposition Xrotation Yrotation Zrotation
												End Site
												{
													OFFSET 277.486267 0.000000 -0.009857
												}
											}
										}
									}
								}
								JOINT mixamorig:LeftHandMiddle1
								{
									OFFSET 9.533394 0.000061 0.000044
									CHANNELS 6 Xposition Yposition Zposition Xrotation Yrotation Zrotation
									JOINT mixamorig:LeftHandMiddle2
									{
										OFFSET 3.699989 -0.000015 -0.000231
										CHANNELS 6 Xposition Yposition Zposition Xrotation Yrotation Zrotation
										JOINT mixamorig:LeftHandMiddle3
										{
											OFFSET 2.949997 -0.000015 -0.000059
											CHANNELS 6 Xposition Yposition Zposition Xrotation Yrotation Zrotation
											JOINT mixamorig:LeftHandMiddle4
											{
												OFFSET 2.952896 0.000031 0.000063
												CHANNELS 6 Xposition Yposition Zposition Xrotation Yrotation Zrotation
												End Site
												{
													OFFSET 295.289337 0.000000 0.022810
												}
											}
										}
									}
								}
								JOINT mixamorig:LeftHandRing1
								{
									OFFSET 9.104523 -0.042999 -1.865074
									CHANNELS 6 Xposition Yposition Zposition Xrotation Yrotation Zrotation
									JOINT mixamorig:LeftHandRing2
									{
										OFFSET 3.150009 -0.000031 0.000043
										CHANNELS 6 Xposition Yposition Zposition Xrotation Yrotation Zrotation
										JOINT mixamorig:LeftHandRing3
										{
											OFFSET 2.949982 -0.000015 0.000040
											CHANNELS 6 Xposition Yposition Zposition Xrotation Yrotation Zrotation
											JOINT mixamorig:LeftHandRing4
											{
												OFFSET 2.644348 0.000000 0.000057
												CHANNELS 6 Xposition Yposition Zposition Xrotation Yrotation Zrotation
												End Site
												{
													OFFSET 264.434631 0.000000 0.012105
												}
											}
										}
									}
								}
								JOINT mixamorig:LeftHandPinky1
								{
									OFFSET 8.077789 -0.486847 -3.806259
									CHANNELS 6 Xposition Yposition Zposition Xrotation Yrotation Zrotation
									JOINT mixamorig:LeftHandPinky2
									{
										OFFSET 3.599953 0.000031 0.014727
										CHANNELS 6 Xposition Yposition Zposition Xrotation Yrotation Zrotation
										JOINT mixamorig:LeftHandPinky3
										{
											OFFSET 2.100021 0.000015 0.007705
											CHANNELS 6 Xposition Yposition Zposition Xrotation Yrotation Zrotation
											JOINT mixamorig:LeftHandPinky4
											{
												OFFSET 2.125504 0.000031 0.007517
												CHANNELS 6 Xposition Yposition Zposition Xrotation Yrotation Zrotation
												End Site
												{
													OFFSET 212.550781 0.000000 0.625752
												}
											}
										}
									}
								}
							}
						}
					}
				}
			}
		}
	}
	JOINT mixamorig:RightUpLeg
	{
		OFFSET -8.207787 -6.751648 -1.599560
		CHANNELS 6 Xposition Yposition Zposition Xrotation Yrotation Zrotation
		JOINT mixamorig:RightLeg
		{
			OFFSET -0.000002 -44.370117 0.345942
			CHANNELS 6 Xposition Yposition Zposition Xrotation Yrotation Zrotation
			JOINT mixamorig:RightFoot
			{
				OFFSET 0.000003 -44.423679 -3.043532
				CHANNELS 6 Xposition Yposition Zposition Xrotation Yrotation Zrotation
				JOINT mixamorig:RightToeBase
				{
					OFFSET -0.000002 -8.728671 10.710558
					CHANNELS 6 Xposition Yposition Zposition Xrotation Yrotation Zrotation
					JOINT mixamorig:RightToe_End
					{
						OFFSET -0.000001 -0.000679 9.278119
						CHANNELS 6 Xposition Yposition Zposition Xrotation Yrotation Zrotation
						End Site
						{
							OFFSET 0.000000 -0.067690 927.812134
						}
					}
				}
			}
		}
	}
	JOINT mixamorig:LeftUpLeg
	{
		OFFSET 8.207793 -6.751686 -1.599556
		CHANNELS 6 Xposition Yposition Zposition Xrotation Yrotation Zrotation
		JOINT mixamorig:LeftLeg
		{
			OFFSET -0.000004 -44.370014 0.346954
			CHANNELS 6 Xposition Yposition Zposition Xrotation Yrotation Zrotation
			JOINT mixamorig:LeftFoot
			{
				OFFSET -0.000001 -44.423672 -3.044401
				CHANNELS 6 Xposition Yposition Zposition Xrotation Yrotation Zrotation
				JOINT mixamorig:LeftToeBase
				{
					OFFSET -0.000002 -8.728669 10.710558
					CHANNELS 6 Xposition Yposition Zposition Xrotation Yrotation Zrotation
					JOINT mixamorig:LeftToe_End
					{
						OFFSET -0.000003 -0.000679 9.278133
						CHANNELS 6 Xposition Yposition Zposition Xrotation Yrotation Zrotation
						End Site
						{
							OFFSET 0.000000 -0.068021 927.813477
						}
					}
				}
			}
		}
	}
}
MOTION
Frames: 3
Frame Time: 0.033333
0.000006 104.270477 1.554256 0.000010 0.000003 -0.000113 -0.000005 10.181587 0.131522 0.000001 -0.000003 0.000084 -0.000000 9.893967 -1.470711 0.000001 0.000000 -0.000000 -0.000000 9.220802 -1.370642 0.000000 -0.000000 -0.000000 0.000001 16.740433 -2.049030 0.000000 -0.000000 -0.000000 0.000000 9.617859 1.685014 0.000000 0.000000 0.000000 0.000002 22.037384 7.501101 0.000000 -0.000000 0.000000 -4.569968 11.014880 -2.160881 0.000008 0.000001 -0.000038 -10.592878 -0.524748 -2.231938 72.548931 25.663833 -18.980223 -27.841530 0.000003 0.000555 -55.945632 107.938265 72.271550 -28.328825 0.000004 0.000026 -0.000320 -0.000045 0.000009 -2.464443 -1.573905 2.682376 -32.567568 -154.475397 22.278443 -3.215283 -1.872573 1.924637 154.814434 31.938637 5.673938 -2.654972 -1.527880 1.513091 147.063877 26.829113 -37.979212 -2.018826 -1.151998 1.108057 -0.000003 -0.000001 0.000002 -9.108389 -0.517565 2.260131 100.726022 17.029574 -20.546095 -3.700079 0.000309 0.001524 97.709483 14.387770 -16.412888 -2.850074 0.000350 -0.000254 97.260685 11.267766 -12.781472 -2.772156 -0.000018 -0.000019 0.000001 0.000001 0.000000 -9.532595 0.000272 0.000268 100.070099 14.969975 -17.987423 -3.700052 0.000328 0.004008 100.315692 11.332109 -13.449378 -2.950052 0.000342 -0.001767 101.038387 10.863790 -13.160656 -2.946618 0.000002 -0.000156 0.000002 -0.000001 0.000001 -9.103705 -0.042749 -1.864836 100.838755 14.817233 -17.824781 -3.379305 0.000337 -0.000769 102.213631 6.313509 -7.842665 -2.889755 0.000380 0.000664 105.162975 4.616480 -6.089427 -2.638796 -0.000003 0.000941 -0.000001 -0.000000 0.000001 -8.076750 -0.486382 -3.805956 99.687403 15.133153 -17.719097 -3.600030 0.000327 -0.003485 102.047684 4.838652 -5.561029 -2.100007 0.000338 -0.005434 102.791185 2.261959 -2.571705 -2.115779 -0.000056 -0.003680 0.000001 -0.000001 -0.000005 4.570446 11.014691 -2.160851 -0.000018 0.000010 -0.000021 10.592397 -0.524475 -2.232356 74.126677 -11.920151 9.017209 27.841841 0.000095 -0.000192 107.235835 -69.168055 86.198080 28.328846 -0.000029 0.000017 0.000022 -0.000088 0.000001 2.465897 -1.576104 2.681900 -51.255427 169.849155 20.169335 3.217832 -1.871774 1.916365 153.745222 -27.990108 18.498352 2.656081 -1.528648 1.514440 136.679762 -28.734667 43.696811 2.020894 -1.154065 1.115148 0.000001 0.000002 0.000004 9.109374 -0.517848 2.259722 86.877267 -14.329242 13.564558 3.700032 0.000164 -0.000468 85.709059 -14.070006 13.078886 2.850048 0.000194 0.000205 84.434676 -12.644742 11.479564 2.774889 -0.000047 -0.000023 -0.000002 0.000001 -0.000001 9.533472 0.000220 -0.000105 88.445076 -13.574960 13.206312 3.700040 0.000185 -0.000375 89.336286 -13.524420 13.367386 2.950064 0.000154 -0.000193 89.193528 -16.628990 16.402762 2.952872 -0.000031 0.000056 -0.000001 -0.000001 0.000001 9.104605 -0.042840 -1.865234 87.895997 -13.152354 12.683794 3.150071 0.000201 -0.000100 92.669384 -13.846545 14.502226 2.950026 0.000186 -0.000069 95.459817 -15.061055 16.551295 2.644325 0.000016 0.000056 0.000002 -0.000000 0.000000 8.077855 -0.486735 -3.806402 73.401400 -16.536800 12.809483 3.600007 0.000162 0.014568 74.833062 -13.122975 10.450615 2.100035 0.000179 0.007558 80.065759 -12.007933 10.505447 2.125522 0.000001 0.007521 -0.000001 -0.000001 -0.000001 -8.207786 -6.751667 -1.599560 -0.077001 -0.000003 0.000080 -0.000002 -44.370110 0.345938 0.153719 -0.000000 -0.000000 0.000000 -44.423679 -3.043532 -0.076700 0.000000 -0.000002 -0.000006 -8.728667 10.710559 -0.000009 -0.000000 -0.000000 -0.000001 -0.000679 9.278123 0.000000 -0.000000 -0.000000 8.207792 -6.751710 -1.599556 -0.074518 -0.000003 0.000081 -0.000002 -44.370014 0.346960 0.148822 0.000002 0.000000 -0.000001 -44.423664 -3.044403 -0.074314 0.000000 -0.000002 -0.000004 -8.728671 10.710558 0.000007 -0.000000 -0.000000 0.000000 -0.000680 9.278137 -0.000000 0.000000 -0.000001 
0.000006 104.270477 1.554256 0.000010 0.000003 -0.000113 -0.000005 10.181587 0.131522 0.000001 -0.000003 0.000084 -0.000000 9.893967 -1.470711 0.000001 0.000000 -0.000000 -0.000000 9.220802 -1.370642 0.000000 -0.000000 -0.000000 0.000001 16.740433 -2.049030 0.000000 -0.000000 -0.000000 0.000000 9.617859 1.685014 0.000000 0.000000 0.000000 0.000002 22.037384 7.501101 0.000000 -0.000000 0.000000 -4.569968 11.014880 -2.160881 0.000008 0.000001 -0.000038 -10.592870 -0.524775 -2.231895 72.291030 32.427556 -23.982852 -27.841526 0.000014 0.000568 -50.178517 105.859012 63.576398 -28.328825 0.000008 0.000025 -0.000322 -0.000043 0.000005 -2.464419 -1.573897 2.682356 -32.828918 -149.550188 19.208384 -3.215267 -1.872561 1.924638 151.362989 32.161561 10.794913 -2.654958 -1.527863 1.513051 145.443797 27.958331 -28.169290 -2.018837 -1.152005 1.108063 -0.000003 -0.000000 0.000000 -9.108377 -0.517549 2.260134 104.408396 14.563070 -18.770039 -3.700057 0.000338 0.001528 101.875782 12.590376 -15.452574 -2.850077 0.000377 -0.000228 101.421172 9.666003 -11.799102 -2.772171 0.000001 -0.000019 -0.000000 -0.000001 0.000000 -9.532579 0.000284 0.000272 100.709835 12.509001 -15.234672 -3.700043 0.000329 0.003999 101.272219 10.659331 -12.862082 -2.950045 0.000344 -0.001787 101.822958 10.658240 -13.092281 -2.946631 -0.000015 -0.000153 -0.000000 -0.000003 -0.000000 -9.103686 -0.042727 -1.864844 100.748029 12.837676 -15.422695 -3.379318 0.000323 -0.000760 102.121307 8.867889 -10.984300 -2.889774 0.000346 0.000686 105.442534 7.653399 -10.103921 -2.638809 -0.000000 0.000936 -0.000000 -0.000001 0.000000 -8.076746 -0.486371 -3.805979 97.964898 14.070518 -15.982690 -3.600036 0.000292 -0.003474 101.057485 6.611495 -7.603828 -2.100029 0.000323 -0.005447 103.262645 4.213155 -5.048698 -2.115770 -0.000054 -0.003671 0.000001 0.000001 -0.000006 4.570446 11.014691 -2.160851 -0.000018 0.000010 -0.000021 10.592412 -0.524471 -2.232360 73.438296 -16.848678 12.607723 27.841833 0.000040 -0.000196 110.383316 -72.239229 92.774214 28.328825 -0.000028 0.000025 0.000022 -0.000088 -0.000000 2.466125 -1.576155 2.681890 -16.508323 157.994406 -55.090749 3.217872 -1.871826 1.916398 158.863616 -23.152615 40.427511 2.656101 -1.528697 1.514479 136.473764 -28.678031 52.585988 2.020891 -1.154078 1.115139 0.000000 0.000004 0.000006 9.109376 -0.517854 2.259753 91.517725 -18.078375 18.542447 3.700030 0.000167 -0.000473 89.109858 -11.521056 11.360993 2.850044 0.000216 0.000202 88.027273 -8.857960 8.558034 2.774889 -0.000014 -0.000028 0.000005 0.000000 -0.000001 9.533445 0.000224 -0.000080 92.871694 -17.948231 18.845501 3.700050 0.000202 -0.000371 92.590092 -10.377024 10.851515 2.950061 0.000194 -0.000213 92.360318 -10.287717 10.721010 2.952878 -0.000030 0.000067 -0.000000 -0.000001 0.000001 9.104580 -0.042841 -1.865210 92.571569 -17.808494 18.614337 3.150056 0.000224 -0.000091 95.259911 -13.195516 14.455279 2.950039 0.000187 -0.000094 96.024988 -11.292930 12.540014 2.644320 0.000031 0.000057 0.000000 0.000001 -0.000001 8.077844 -0.486726 -3.806408 80.945651 -21.228749 18.696671 3.600028 0.000168 0.014568 81.435820 -19.040346 16.893749 2.100054 0.000178 0.007562 82.815306 -14.178460 12.954538 2.125503 -0.000016 0.007514 0.000001 -0.000002 0.000000 -8.207786 -6.751667 -1.599560 -0.077001 -0.000003 0.000080 -0.000002 -44.370110 0.345938 0.153719 -0.000000 -0.000000 0.000000 -44.423679 -3.043532 -0.076700 0.000000 -0.000002 -0.000006 -8.728667 10.710559 -0.000009 -0.000000 -0.000000 -0.000001 -0.000679 9.278123 0.000000 -0.000000 -0.000000 8.207792 -6.751710 -1.599556 -0.074518 -0.000003 0.000081 -0.000002 -44.370014 0.346960 0.148822 0.000002 0.000000 -0.000001 -44.423664 -3.044403 -0.074314 0.000000 -0.000002 -0.000004 -8.728671 10.710558 0.000007 -0.000000 -0.000000 0.000000 -0.000680 9.278137 -0.000000 0.000000 -0.000001 
0.000006 104.270477 1.554256 0.000010 0.000003 -0.000113 -0.000005 10.181587 0.131522 0.000001 -0.000003 0.000084 -0.000000 9.893967 -1.470711 0.000001 0.000000 -0.000000 -0.000000 9.220802 -1.370642 0.000000 -0.000000 -0.000000 0.000001 16.740433 -2.049030 0.000000 -0.000000 -0.000000 0.000000 9.617859 1.685014 0.000000 0.000000 0.000000 0.000002 22.037384 7.501101 0.000000 -0.000000 0.000000 -4.569968 11.014880 -2.160881 0.000008 0.000001 -0.000038 -10.592850 -0.524812 -2.231823 71.331190 45.978429 -33.867889 -27.841509 0.000008 0.000549 -40.715386 101.878644 49.142074 -28.328846 0.000007 0.000026 -0.000320 -0.000045 0.000011 -2.464637 -1.574161 2.682329 34.915647 -152.983806 112.005813 -3.214755 -1.872688 1.924785 144.547553 -19.578037 -166.034181 -2.654975 -1.527862 1.513052 162.555934 29.331438 -11.619911 -2.018823 -1.152003 1.108063 -0.000001 -0.000000 0.000007 -9.108395 -0.517577 2.260227 119.275102 16.971866 -28.657128 -3.700054 0.000293 0.001600 115.601198 13.827460 -21.760928 -2.850074 0.000358 -0.000186 111.773355 9.063330 -13.345726 -2.772181 -0.000000 -0.000026 -0.000000 0.000003 -0.000002 -9.532597 0.000268 0.000332 116.000381 12.072477 -19.429158 -3.700066 0.000318 0.004088 116.604375 8.867524 -14.164480 -2.950051 0.000319 -0.001730 112.938858 8.617300 -12.962721 -2.946638 0.000013 -0.000161 0.000000 0.000002 -0.000004 -9.103693 -0.042742 -1.864790 114.969829 12.110067 -18.829191 -3.379332 0.000296 -0.000712 117.350354 9.146323 -15.003059 -2.889740 0.000338 0.000726 115.808863 7.127971 -11.415658 -2.638812 -0.000019 0.000940 0.000001 -0.000001 0.000001 -8.076742 -0.486381 -3.805928 110.828582 12.791176 -18.258679 -3.600042 0.000274 -0.003409 115.806295 8.403398 -12.792694 -2.100016 0.000302 -0.005356 117.072857 5.506672 -8.627486 -2.115771 -0.000030 -0.003674 0.000001 -0.000003 -0.000002 4.570446 11.014691 -2.160851 -0.000018 0.000010 -0.000021 10.592463 -0.524484 -2.232407 71.473394 -33.701417 24.589519 27.841841 0.000015 -0.000189 115.306202 -76.812936 102.759841 28.328846 -0.000032 0.000019 0.000022 -0.000088 0.000000 2.466256 -1.575994 2.681826 23.343172 172.163142 -119.688328 3.217875 -1.871859 1.916430 167.730103 -19.726520 44.397401 2.656110 -1.528640 1.514472 145.059325 -25.892653 52.310961 2.020891 -1.154052 1.115147 0.000000 0.000004 0.000002 9.109394 -0.517854 2.259756 92.264012 -21.713602 22.553501 3.700049 0.000167 -0.000446 91.733006 -15.050819 15.525322 2.850045 0.000223 0.000217 89.885809 -11.740188 11.715690 2.774905 -0.000029 -0.000027 0.000002 -0.000001 -0.000001 9.533471 0.000211 -0.000093 90.874642 -19.585538 19.871582 3.700051 0.000197 -0.000373 93.998662 -13.031654 13.962513 2.950063 0.000191 -0.000207 93.493856 -11.008216 11.699219 2.952867 -0.000014 0.000064 0.000004 -0.000000 -0.000000 9.104603 -0.042844 -1.865209 92.037516 -18.751835 19.420174 3.150037 0.000201 -0.000075 94.274028 -15.064177 16.219027 2.950026 0.000196 -0.000079 93.485626 -11.175841 11.874274 2.644312 0.000042 0.000056 -0.000001 -0.000000 -0.000001 8.077854 -0.486707 -3.806392 88.346332 -20.955341 20.963985 3.600028 0.000189 0.014582 88.913422 -19.070380 19.246519 2.100060 0.000211 0.007549 89.286821 -13.727575 14.044367 2.125509 -0.000029 0.007514 -0.000003 -0.000001 0.000001 -8.207786 -6.751667 -1.599560 -0.077001 -0.000003 0.000080 -0.000002 -44.370110 0.345938 0.153719 -0.000000 -0.000000 0.000000 -44.423679 -3.043532 -0.076700 0.000000 -0.000002 -0.000006 -8.728667 10.710559 -0.000009 -0.000000 -0.000000 -0.000001 -0.000679 9.278123 0.000000 -0.000000 -0.000000 8.207792 -6.751710 -1.599556 -0.074518 -0.000003 0.000081 -0.000002 -44.370014 0.346960 0.148822 0.000002 0.000000 -0.000001 -44.423664 -3.044403 -0.074314 0.000000 -0.000002 -0.000004 -8.728671 10.710558 0.000007 -0.000000 -0.000000 0.000000 -0.000680 9.278137 -0.000000 0.000000 -0.000001 
